# xmcd
#
# Track frame offsets:
#	150
#	21798
#	34532
#	49331
#	68293
#	84189
#	98843
#	111272
#	126644
#	142660
#	160747
#	176881
#	201726
#
# Disc length: 2909 seconds
# Revision: 1
# Processed by: cddbd v1.5.2PL0 Copyright (c) Steve Scherf et al.
# Submitted via: dBpowerAMP V12.0
#
DISCID=ad0b5b0d
DTITLE=Merle Haggard and Willie Nelson - Pancho and Lefty
DYEAR=1983
DGENRE=Country
TTITLE0=Pancho And Lefty
TTITLE1=It's My Lazy Day
TTITLE2=My Mary
TTITLE3=Half A Man
TTITLE4=Reasons To Quit
TTITLE5=No Reason To Quit
TTITLE6=Still Water Runs The Deepest
TTITLE7=My Life's Been A Pleasure
TTITLE8=All The Soft Places To Fall
TTITLE9=Opportunity To Cry
TTITLE10=Half A Man
TTITLE11=My Own Peculiar Way
TTITLE12=DATA
EXTD=
EXTT0=
EXTT1=
EXTT2=
EXTT3=
EXTT4=
EXTT5=
EXTT6=
EXTT7=
EXTT8=
EXTT9=
EXTT10=
EXTT11=
EXTT12=
PLAYORDER=
